<?xml version="1.0"?>
<svg xmlns="http://www.w3.org/2000/svg" xmlns:xlink="http://www.w3.org/1999/xlink" xmlns:svgjs="http://svgjs.com/svgjs" version="1.1" width="512" height="512" x="0" y="0" viewBox="0 0 256 256" style="enable-background:new 0 0 512 512" xml:space="preserve" class=""><g><g xmlns="http://www.w3.org/2000/svg" fill="#846f75"><path d="m154.122 193.3-4.542-1.171 2.386-4.042a5.048 5.048 0 0 0 -.78-6.126l-4.079-4.077a5.04 5.04 0 0 0 -6.127-.779l-4.04 2.384-1.171-4.546a5.045 5.045 0 0 0 -4.883-3.778h-5.768a5.044 5.044 0 0 0 -4.883 3.782l-1.171 4.542-4.042-2.386a5.044 5.044 0 0 0 -6.125.78l-4.079 4.079a5.042 5.042 0 0 0 -.778 6.127l2.384 4.04-4.545 1.171a5.043 5.043 0 0 0 -3.78 4.883v5.768a5.043 5.043 0 0 0 3.782 4.883l4.543 1.171-2.385 4.042a5.043 5.043 0 0 0 .779 6.126l4.079 4.077a5.044 5.044 0 0 0 6.128.779l4.039-2.384 1.171 4.545a5.045 5.045 0 0 0 4.883 3.78h5.768a5.047 5.047 0 0 0 4.884-3.783l1.17-4.542 4.042 2.386a5.043 5.043 0 0 0 6.124-.78l4.081-4.08a5.048 5.048 0 0 0 .778-6.127l-2.385-4.039 4.544-1.171a5.043 5.043 0 0 0 3.78-4.883v-5.768a5.043 5.043 0 0 0 -3.782-4.883zm-1.22 4.883-.03 5.81-7.761 2a2.5 2.5 0 0 0 -1.529 3.692l4.066 6.952-4.129 4.087-6.9-4.074a2.5 2.5 0 0 0 -3.691 1.529l-2.042 7.791-5.809-.031-2-7.76a2.5 2.5 0 0 0 -3.692-1.529l-6.953 4.065-4.086-4.129 4.073-6.9a2.5 2.5 0 0 0 -1.53-3.686l-7.792-2.042.03-5.809 7.762-2a2.5 2.5 0 0 0 1.528-3.692l-4.065-6.952 4.129-4.087 6.9 4.073a2.5 2.5 0 0 0 3.692-1.528l2.041-7.791 5.81.03 2 7.761a2.5 2.5 0 0 0 3.691 1.528l6.952-4.065 4.087 4.129-4.074 6.9a2.5 2.5 0 0 0 1.529 3.692z" fill="#000000" data-original="#846f75" style="" class=""/><path d="m128 189.728a11.342 11.342 0 1 0 11.341 11.341 11.354 11.354 0 0 0 -11.341-11.341zm0 17.683a6.342 6.342 0 1 1 6.341-6.342 6.348 6.348 0 0 1 -6.341 6.342z" fill="#000000" data-original="#846f75" style="" class=""/><path d="m217 52.431h-178a7.508 7.508 0 0 0 -7.5 7.5v136.138a7.508 7.508 0 0 0 7.5 7.5h51.6a2.5 2.5 0 1 0 0-5h-51.6a2.5 2.5 0 0 1 -2.5-2.5v-107.902h183v107.9a2.5 2.5 0 0 1 -2.5 2.5h-51.6a2.5 2.5 0 0 0 0 5h51.6a7.508 7.508 0 0 0 7.5-7.5v-136.136a7.508 7.508 0 0 0 -7.5-7.5zm-180.5 30.736v-23.236a2.5 2.5 0 0 1 2.5-2.5h178a2.5 2.5 0 0 1 2.5 2.5v23.236z" fill="#000000" data-original="#846f75" style="" class=""/><path d="m171.667 68.5h-5.334a2.5 2.5 0 0 0 0 5h5.334a2.5 2.5 0 0 0 0-5z" fill="#000000" data-original="#846f75" style="" class=""/><path d="m189.667 68.5h-5.334a2.5 2.5 0 0 0 0 5h5.334a2.5 2.5 0 1 0 0-5z" fill="#000000" data-original="#846f75" style="" class=""/><path d="m207.667 68.5h-5.334a2.5 2.5 0 1 0 0 5h5.334a2.5 2.5 0 1 0 0-5z" fill="#000000" data-original="#846f75" style="" class=""/><path d="m53.667 68.5h-5.334a2.5 2.5 0 0 0 0 5h5.334a2.5 2.5 0 0 0 0-5z" fill="#000000" data-original="#846f75" style="" class=""/></g><path xmlns="http://www.w3.org/2000/svg" d="m176.141 105.5h4.6a.844.844 0 0 1 .844.844v54.5a.844.844 0 0 1 -.844.844h-4.6a.845.845 0 0 1 -.845-.845v-54.5a.844.844 0 0 1 .845-.843z" fill="#000000" data-original="#ed9abc" style="" class=""/><path xmlns="http://www.w3.org/2000/svg" d="m158.809 110.053c-3.426-3.021-8.129-4.553-13.979-4.553h-18.565a.846.846 0 0 0 -.845.844v54.5a.846.846 0 0 0 .845.844h4.6a.845.845 0 0 0 .844-.844v-21.353h13c6.174 0 10.977-1.475 14.276-4.385 3.331-2.936 5.021-7.135 5.021-12.48.009-5.293-1.743-9.526-5.197-12.573zm-4.326 20.888c-2.175 1.97-5.423 2.969-9.653 2.969h-13.117v-22.829h13.4c4.056.047 7.206 1.123 9.368 3.2a11.005 11.005 0 0 1 3.242 8.406c.001 3.578-1.059 6.279-3.24 8.254z" fill="#000000" data-original="#ed9abc" style="" class=""/><path xmlns="http://www.w3.org/2000/svg" d="m102.559 146.378 5.448 14.757a.846.846 0 0 0 .791.552h4.792a.844.844 0 0 0 .789-1.143l-20.625-54.5a.847.847 0 0 0 -.789-.545h-4.379a.847.847 0 0 0 -.789.545l-20.624 54.5a.844.844 0 0 0 .789 1.144h4.829a.847.847 0 0 0 .792-.554l5.417-14.756zm-11.802-31.978 9.719 26.395h-19.437z" fill="#000000" data-original="#ed9abc" style="" class=""/></g></svg>
