<svg id="Capa_1" enable-background="new 0 0 607.77 607.77" height="512" viewBox="0 0 607.77 607.77" width="512" xmlns="http://www.w3.org/2000/svg"><g><g id="Page-1_14_"><g id="_x30_16---Vector-Engineering"><path id="Shape_59_" d="m546.993 0h-486.216c-33.552.034-60.743 27.225-60.777 60.777v486.216c.034 33.552 27.225 60.743 60.777 60.777h486.216c33.552-.034 60.743-27.225 60.777-60.777v-486.216c-.033-33.552-27.225-60.743-60.777-60.777zm-486.216 20.259h486.216c22.377 0 40.518 18.141 40.518 40.518v60.777h-567.252v-60.777c0-22.377 18.141-40.518 40.518-40.518zm486.216 567.252h-486.216c-22.377 0-40.518-18.141-40.518-40.518v-405.18h567.252v405.18c0 22.377-18.141 40.518-40.518 40.518z"/><path id="Shape_58_" d="m70.907 101.295c16.783 0 30.389-13.605 30.389-30.389s-13.606-30.388-30.389-30.388-30.389 13.605-30.389 30.389 13.605 30.388 30.389 30.388zm0-40.518c5.594 0 10.13 4.535 10.13 10.13s-4.535 10.13-10.13 10.13-10.13-4.535-10.13-10.13 4.535-10.13 10.13-10.13z"/><path id="Shape_57_" d="m151.943 101.295c16.783 0 30.389-13.605 30.389-30.389s-13.605-30.389-30.389-30.389-30.389 13.605-30.389 30.389 13.605 30.389 30.389 30.389zm0-40.518c5.594 0 10.13 4.535 10.13 10.13s-4.535 10.13-10.13 10.13-10.13-4.535-10.13-10.13 4.535-10.13 10.13-10.13z"/><path id="Shape_56_" d="m232.979 101.295c16.783 0 30.388-13.605 30.388-30.389s-13.605-30.389-30.388-30.389-30.389 13.606-30.389 30.39 13.605 30.388 30.389 30.388zm0-40.518c5.594 0 10.129 4.535 10.129 10.13s-4.535 10.13-10.129 10.13-10.13-4.535-10.13-10.13 4.535-10.13 10.13-10.13z"/><path id="Shape_55_" d="m435.569 101.295h101.295c16.783 0 30.388-13.605 30.388-30.389s-13.605-30.389-30.388-30.389h-101.295c-16.783 0-30.388 13.605-30.388 30.389s13.604 30.389 30.388 30.389zm0-40.518h101.295c5.594 0 10.13 4.535 10.13 10.13s-4.535 10.13-10.13 10.13h-101.295c-5.594 0-10.129-4.535-10.129-10.13s4.534-10.13 10.129-10.13z"/><path id="Shape_54_" d="m465.957 172.202h-40.518c-16.783 0-30.389 13.605-30.389 30.389v10.13h-182.33v-10.13c0-16.783-13.605-30.389-30.389-30.389h-40.518c-16.783 0-30.388 13.605-30.388 30.389v40.518c0 16.783 13.605 30.389 30.388 30.389h10.13v182.331h-10.13c-16.783 0-30.388 13.605-30.388 30.388v40.518c0 16.783 13.605 30.388 30.388 30.388h40.518c16.783 0 30.389-13.605 30.389-30.388v-40.518c0-16.783-13.605-30.388-30.389-30.388h-10.13v-182.332h10.13c16.783 0 30.389-13.605 30.389-30.389v-10.129h182.331v10.129c0 16.783 13.605 30.389 30.389 30.389h40.518c16.783 0 30.388-13.605 30.388-30.389v-40.518c0-16.783-13.606-30.388-30.389-30.388zm-273.496 314.014v40.518c0 5.594-4.535 10.13-10.13 10.13h-40.518c-5.594 0-10.13-4.535-10.13-10.13v-40.518c0-5.594 4.535-10.129 10.13-10.129h40.518c5.594 0 10.13 4.535 10.13 10.129zm0-243.108c0 5.594-4.535 10.13-10.13 10.13h-40.518c-5.594 0-10.13-4.535-10.13-10.13v-40.518c0-5.594 4.535-10.13 10.13-10.13h40.518c5.594 0 10.13 4.535 10.13 10.13zm283.626 0c0 5.594-4.535 10.13-10.129 10.13h-40.518c-5.594 0-10.13-4.535-10.13-10.13v-40.518c0-5.594 4.535-10.13 10.13-10.13h40.518c5.594 0 10.129 4.535 10.129 10.13z"/><path id="Shape_53_" d="m465.086 404.167c-7.8-7.742-19.183-10.65-29.74-7.597l-6.544-51.853c-1.627-13.611-11.998-24.539-25.506-26.874l-133.709-23.582c-10.019-1.759-20.266 1.477-27.458 8.671s-10.425 17.442-8.663 27.461l23.581 133.709c2.328 13.489 13.233 23.85 26.823 25.486l51.893 6.544c-3.047 10.567-.132 21.956 7.617 29.76l22.457 22.356c11.855 11.796 31.013 11.796 42.868 0l78.747-78.747c5.688-5.681 8.884-13.39 8.884-21.429s-3.196-15.748-8.884-21.429zm-188.095 56.421-23.227-131.684 45.735 45.745c-3.715 6.16-5.699 13.208-5.743 20.401 0 22.378 18.141 40.518 40.518 40.518 22.378 0 40.518-18.141 40.518-40.518s-18.141-40.518-40.518-40.518c-7.21.035-14.277 2.02-20.451 5.743l-45.725-45.735 131.684 23.227c4.712.855 8.329 4.661 8.944 9.41l7.871 62.499-67.675 67.685-62.529-7.891c-4.741-.607-8.543-4.212-9.4-8.914v.032zm57.282-85.796c11.189 0 20.259 9.07 20.259 20.259s-9.07 20.259-20.259 20.259-20.259-9.07-20.259-20.259 9.071-20.259 20.259-20.259zm138.856 80.367-78.747 78.747c-1.888 1.889-4.45 2.95-7.121 2.95s-5.233-1.061-7.121-2.95l-22.447-22.366c-3.954-3.956-3.954-10.368 0-14.323l78.747-78.747c3.953-3.941 10.35-3.941 14.303 0l22.386 22.498c1.883 1.879 2.941 4.43 2.941 7.091 0 2.66-1.058 5.211-2.941 7.091z"/></g></g></g></svg>