<svg id="Layer_1" data-name="Layer 1" xmlns="http://www.w3.org/2000/svg" viewBox="0 0 624.59 923.96">
    <defs>
        <style>.cls-1{fill:none;stroke:#a2facf;stroke-miterlimit:10;stroke-width:17px;}</style>
    </defs>
    <title>bg</title>
    <path class="cls-1" d="M1022.89,980.29a62.64,62.64,0,0,0-60.14-45.06h-279L659,1005.46h371.24Z"
          transform="translate(-600.9 -90)"/>
    <path class="cls-1" d="M977,456" transform="translate(-600.9 -90)"/>
    <path class="cls-1"
          d="M1130.45,159.71A94.58,94.58,0,0,0,1116,132.93a87.72,87.72,0,0,0-20.59-19.13,90.24,90.24,0,0,0-24.65-11.48,95,95,0,0,0-53.37,0A90.24,90.24,0,0,0,992.7,113.8a87.72,87.72,0,0,0-20.59,19.13,94.33,94.33,0,0,0-14.49,26.78L879.4,382.09l.09.36L880,381l64.23,246.7a15.22,15.22,0,0,1,.61,4.19,14.91,14.91,0,0,1-11.91,14.61l-146.71.5L684.88,935.1h281a62.64,62.64,0,0,1,60.15,45.08l7.39,25.28H1217V405.81Z"
          transform="translate(-600.9 -90)"/>
    <line class="cls-1" y1="535.68" y2="535.68"/>
    <path class="cls-1"
          d="M944.23,626.7a15.22,15.22,0,0,1,.61,4.19,14.91,14.91,0,0,1-11.91,14.61L786,646q47-133,94-266Z"
          transform="translate(-600.9 -90)"/>
</svg>