<svg id="Layer_1" data-name="Layer 1" xmlns="http://www.w3.org/2000/svg" viewBox="0 0 624.59 923.96"
     width="624.5900268554688" height="100%">
    <defs>
        <style>.cls-1{fill:none;stroke:#a2facf;stroke-miterlimit:10;stroke-width:17px;opacity:.3;} /***************************************************
 * Generated by SVG Artista on 3/25/2021, 5:00:36 AM
 * MIT license (https://opensource.org/licenses/MIT)
 * W. https://svgartista.net
 **************************************************/

@-webkit-keyframes animate-svg-stroke-1 {
  0% {
    stroke-dashoffset: 833.5214233398438px;
    stroke-dasharray: 833.5214233398438px;
  }

  100% {
    stroke-dashoffset: 0;
  }
}

@keyframes animate-svg-stroke-1 {
  0% {
    stroke-dashoffset: 833.5214233398438px;
    stroke-dasharray: 833.5214233398438px;
  }

  100% {
    stroke-dashoffset: 0;
  }
}

.svg-bg-1 {
  -webkit-animation: animate-svg-stroke-1 7s cubic-bezier(0.47, 0, 0.745, 0.715) 0s both;
          animation: animate-svg-stroke-1 7s cubic-bezier(0.47, 0, 0.745, 0.715) 0s both;
}

@-webkit-keyframes animate-svg-stroke-2 {
  0% {
    stroke-dashoffset: 2px;
    stroke-dasharray: 2px;
  }

  100% {
    stroke-dashoffset: 0;
  }
}

@keyframes animate-svg-stroke-2 {
  0% {
    stroke-dashoffset: 2px;
    stroke-dasharray: 2px;
  }

  100% {
    stroke-dashoffset: 0;
  }
}

.svg-bg-2 {
  -webkit-animation: animate-svg-stroke-2 7s cubic-bezier(0.47, 0, 0.745, 0.715) 0.12s both;
          animation: animate-svg-stroke-2 7s cubic-bezier(0.47, 0, 0.745, 0.715) 0.12s both;
}

@-webkit-keyframes animate-svg-stroke-3 {
  0% {
    stroke-dashoffset: 2629.72802734375px;
    stroke-dasharray: 2629.72802734375px;
  }

  100% {
    stroke-dashoffset: 0;
  }
}

@keyframes animate-svg-stroke-3 {
  0% {
    stroke-dashoffset: 2629.72802734375px;
    stroke-dasharray: 2629.72802734375px;
  }

  100% {
    stroke-dashoffset: 0;
  }
}

.svg-bg-3 {
  -webkit-animation: animate-svg-stroke-3 7s cubic-bezier(0.47, 0, 0.745, 0.715) 0.24s both;
          animation: animate-svg-stroke-3 7s cubic-bezier(0.47, 0, 0.745, 0.715) 0.24s both;
}

@-webkit-keyframes animate-svg-stroke-4 {
  0% {
    stroke-dashoffset: 2px;
    stroke-dasharray: 2px;
  }

  100% {
    stroke-dashoffset: 0;
  }
}

@keyframes animate-svg-stroke-4 {
  0% {
    stroke-dashoffset: 2px;
    stroke-dasharray: 2px;
  }

  100% {
    stroke-dashoffset: 0;
  }
}

.svg-bg-4 {
  -webkit-animation: animate-svg-stroke-4 7s cubic-bezier(0.47, 0, 0.745, 0.715) 0.36s both;
          animation: animate-svg-stroke-4 7s cubic-bezier(0.47, 0, 0.745, 0.715) 0.36s both;
}

@-webkit-keyframes animate-svg-stroke-5 {
  0% {
    stroke-dashoffset: 710.6298217773438px;
    stroke-dasharray: 710.6298217773438px;
  }

  100% {
    stroke-dashoffset: 0;
  }
}

@keyframes animate-svg-stroke-5 {
  0% {
    stroke-dashoffset: 710.6298217773438px;
    stroke-dasharray: 710.6298217773438px;
  }

  100% {
    stroke-dashoffset: 0;
  }
}

.svg-bg-5 {
  -webkit-animation: animate-svg-stroke-5 7s cubic-bezier(0.47, 0, 0.745, 0.715) 0.48s both;
          animation: animate-svg-stroke-5 7s cubic-bezier(0.47, 0, 0.745, 0.715) 0.48s both;
}
</style>
    </defs>
    <title>bg</title>
    <path class="cls-1 svg-bg-1" d="M1022.89,980.29a62.64,62.64,0,0,0-60.14-45.06h-279L659,1005.46h371.24Z"
          transform="translate(-600.9 -90)"></path>
    <path class="cls-1 svg-bg-2" d="M977,456" transform="translate(-600.9 -90)"></path>
    <path class="cls-1 svg-bg-3"
          d="M1130.45,159.71A94.58,94.58,0,0,0,1116,132.93a87.72,87.72,0,0,0-20.59-19.13,90.24,90.24,0,0,0-24.65-11.48,95,95,0,0,0-53.37,0A90.24,90.24,0,0,0,992.7,113.8a87.72,87.72,0,0,0-20.59,19.13,94.33,94.33,0,0,0-14.49,26.78L879.4,382.09l.09.36L880,381l64.23,246.7a15.22,15.22,0,0,1,.61,4.19,14.91,14.91,0,0,1-11.91,14.61l-146.71.5L684.88,935.1h281a62.64,62.64,0,0,1,60.15,45.08l7.39,25.28H1217V405.81Z"
          transform="translate(-600.9 -90)"></path>
    <line class="cls-1 svg-bg-4" y1="535.68" y2="535.68"></line>
    <path class="cls-1 svg-bg-5"
          d="M944.23,626.7a15.22,15.22,0,0,1,.61,4.19,14.91,14.91,0,0,1-11.91,14.61L786,646q47-133,94-266Z"
          transform="translate(-600.9 -90)"></path>
</svg>