<svg xmlns="http://www.w3.org/2000/svg" width="1462.346" height="584.258" viewBox="0 0 1462.346 584.258">
  <g id="Group_2132" data-name="Group 2132" transform="translate(3481.462 -9233.383)">
    <g id="Group_2128" data-name="Group 2128" transform="translate(-3840.054 9004.182)">
      <g id="Group_2127" data-name="Group 2127">
        <path id="Path_658" data-name="Path 658" d="M598.02,733.5c-1.75,1.93-3.47,3.91-5.26,5.82-1.83,1.86-3.62,3.79-5.51,5.61-3.76,3.67-7.62,7.27-11.73,10.59-4.05,3.41-8.34,6.55-12.7,9.62a149.09,149.09,0,0,1-13.72,8.38c-1.17.67-2.37,1.29-3.58,1.88s-2.41,1.23-3.63,1.81c-2.46,1.13-4.92,2.28-7.46,3.27-2.51,1.07-5.08,1.95-7.65,2.89-2.6.83-5.2,1.72-7.85,2.42a63.367,63.367,0,0,1-8.04,1.77c-2.72.37-5.46.63-8.2.82a160.978,160.978,0,0,1-16.43.57,155.805,155.805,0,0,1-32.45-4.23,178.668,178.668,0,0,1-30.78-10.49,205.056,205.056,0,0,1-28.41-15.44q-6.78-4.395-13.22-9.31c-2.15-1.64-4.26-3.32-6.35-5.07-1.04-.87-2.08-1.76-3.11-2.67l-1.55-1.39c-.53-.49-.99-.91-1.62-1.52l-2.25-2.18V461H517.19q3.975-.045,7.95-.16c2.65-.06,5.3.02,7.95.21l31.81,2.27c.61.03,1.47.14,2.21.22.76.09,1.52.16,2.27.27l2.24.48a16.522,16.522,0,0,1,2.2.57,30.116,30.116,0,0,1,4.25,1.59c.68.32,1.38.58,2.04.96l1.95,1.11a15.385,15.385,0,0,1,1.87,1.22l1.81,1.29,1.68,1.45a15.205,15.205,0,0,1,1.6,1.51l1.51,1.59c.49.54.92,1.14,1.37,1.7a33.276,33.276,0,0,1,2.46,3.57,33.786,33.786,0,0,1,4.8,16.1,16.036,16.036,0,0,1,0,2.08l-.07,2.06-.34,3.98-.73,7.95-.73-7.95-.34-3.98-.27-1.91a13.2,13.2,0,0,0-.33-1.88,27.74,27.74,0,0,0-1.03-3.65c-.22-.59-.41-1.19-.64-1.77l-.8-1.69-.4-.84c-.14-.28-.31-.54-.47-.81l-.94-1.59c-.32-.52-.72-1-1.07-1.5a14.353,14.353,0,0,0-1.12-1.45,27.157,27.157,0,0,0-2.51-2.63c-.45-.4-.86-.84-1.34-1.21l-1.43-1.09a10.668,10.668,0,0,0-1.48-1l-1.51-.93-1.59-.78a11.447,11.447,0,0,0-1.6-.71l-1.63-.61c-.54-.21-1.12-.31-1.67-.47a16.262,16.262,0,0,0-1.67-.41l-1.69-.28a10.651,10.651,0,0,0-1.7-.18l-1.69-.12-1.7.05c-.59.03-1.05.01-1.77.07l-31.81,2.27c-2.65.19-5.3.27-7.95.21q-3.975-.12-7.95-.16H374.02l7.5-7.5v265l-2.25-5.35,1.23,1.15,1.36,1.22c.92.81,1.86,1.61,2.81,2.41,1.9,1.59,3.85,3.15,5.84,4.66q5.955,4.545,12.27,8.64a188.391,188.391,0,0,0,26.33,14.31,164.315,164.315,0,0,0,28.18,9.61,140.89,140.89,0,0,0,29.28,3.82,120.6,120.6,0,0,0,14.72-.58c4.88-.57,9.68-1.52,14.57-2.1,2.45-.29,4.87-.77,7.32-1.19,2.42-.53,4.86-1,7.26-1.65,2.43-.57,4.8-1.32,7.22-2.01,1.2-.37,2.38-.78,3.57-1.17s2.39-.79,3.56-1.25l3.54-1.32,3.5-1.45,1.76-.72,1.73-.78,3.48-1.57c4.57-2.23,9.14-4.56,13.55-7.19,1.1-.66,2.23-1.29,3.32-1.97l3.27-2.06c2.22-1.33,4.32-2.82,6.49-4.25s4.23-3,6.35-4.51Z" fill="#9ac654"/>
      </g>
      <path id="Path_659" data-name="Path 659" d="M486.02,468.5v-170" fill="none" stroke="#9ac654" stroke-miterlimit="10" stroke-width="15"/>
      <path id="Path_660" data-name="Path 660" d="M486.02,302.5a56.914,56.914,0,0,1,38-56q11.895-1.56,24-3,28.965-3.45,57-6a82.339,82.339,0,0,1-8,28,84.368,84.368,0,0,1-31,34,113.288,113.288,0,0,1-30,8A115.161,115.161,0,0,1,486.02,302.5Z" fill="none" stroke="#9ac654" stroke-miterlimit="10" stroke-width="15"/>
      <path id="Path_661" data-name="Path 661" d="M485.98,399.5a56.914,56.914,0,0,0-38-56q-11.895-1.56-24-3-28.965-3.45-57-6a82.34,82.34,0,0,0,8,28,84.368,84.368,0,0,0,31,34,113.288,113.288,0,0,0,30,8A115.161,115.161,0,0,0,485.98,399.5Z" fill="none" stroke="#9ac654" stroke-miterlimit="10" stroke-width="15"/>
    </g>
    <g id="Group" transform="translate(-3840.054 9004.182)">
      <text id="KIVULI_" data-name="KIVULI " transform="translate(629.008 571.379)" fill="#c69c6d" font-size="156.73" font-family="JosefinSans-Regular, Josefin Sans"><tspan x="0" y="0">KIVULI </tspan></text>
      <text id="TREE_NUSERY_" data-name="TREE NUSERY " transform="translate(629.008 759.459)" fill="#c69c6d" font-size="156.73" font-family="JosefinSans-Regular, Josefin Sans"><tspan x="0" y="0">TREE NUSERY </tspan></text>
      <text id="_." data-name="." transform="translate(1778.938 759.459)" fill="none" stroke="#9ac654" stroke-miterlimit="10" stroke-width="15" font-size="156.73" font-family="JosefinSans-Regular, Josefin Sans"><tspan x="0" y="0">.</tspan></text>
    </g>
  </g>
</svg>
